<?xml version="1.0" standalone="no"?>
<svg xmlns:xlink="http://www.w3.org/1999/xlink" id="wave" style="transform:rotate(180deg); transition: 0.3s" viewBox="0 0 1440 490" version="1.1" xmlns="http://www.w3.org/2000/svg"><defs><linearGradient id="sw-gradient-0" x1="0" x2="0" y1="1" y2="0"><stop stop-color="rgba(243, 106, 62, 1)" offset="0%"/><stop stop-color="rgba(255, 179, 11, 1)" offset="100%"/></linearGradient></defs><path style="transform:translate(0, 0px); opacity:1" fill="url(#sw-gradient-0)" d="M0,98L48,155.2C96,212,192,327,288,334.8C384,343,480,245,576,204.2C672,163,768,180,864,212.3C960,245,1056,294,1152,285.8C1248,278,1344,212,1440,204.2C1536,196,1632,245,1728,236.8C1824,229,1920,163,2016,122.5C2112,82,2208,65,2304,114.3C2400,163,2496,278,2592,269.5C2688,261,2784,131,2880,81.7C2976,33,3072,65,3168,106.2C3264,147,3360,196,3456,212.3C3552,229,3648,212,3744,196C3840,180,3936,163,4032,147C4128,131,4224,114,4320,89.8C4416,65,4512,33,4608,57.2C4704,82,4800,163,4896,220.5C4992,278,5088,310,5184,285.8C5280,261,5376,180,5472,187.8C5568,196,5664,294,5760,351.2C5856,408,5952,425,6048,367.5C6144,310,6240,180,6336,114.3C6432,49,6528,49,6624,73.5C6720,98,6816,147,6864,171.5L6912,196L6912,490L6864,490C6816,490,6720,490,6624,490C6528,490,6432,490,6336,490C6240,490,6144,490,6048,490C5952,490,5856,490,5760,490C5664,490,5568,490,5472,490C5376,490,5280,490,5184,490C5088,490,4992,490,4896,490C4800,490,4704,490,4608,490C4512,490,4416,490,4320,490C4224,490,4128,490,4032,490C3936,490,3840,490,3744,490C3648,490,3552,490,3456,490C3360,490,3264,490,3168,490C3072,490,2976,490,2880,490C2784,490,2688,490,2592,490C2496,490,2400,490,2304,490C2208,490,2112,490,2016,490C1920,490,1824,490,1728,490C1632,490,1536,490,1440,490C1344,490,1248,490,1152,490C1056,490,960,490,864,490C768,490,672,490,576,490C480,490,384,490,288,490C192,490,96,490,48,490L0,490Z"/></svg>